<?xml version="1.0" encoding="UTF-8"?>
<svg id="katman_1" xmlns="http://www.w3.org/2000/svg" version="1.1" viewBox="0 0 309.47 67.42">
  <!-- Generator: Adobe Illustrator 29.1.0, SVG Export Plug-In . SVG Version: 2.1.0 Build 142)  -->
  <defs>
    <style>
      .st0 {
        fill: #2b3275;
      }

      .st1 {
        fill: #00a1c6;
      }
    </style>
  </defs>
  <g>
    <path class="st1" d="M19.52,39.09c-.5.03-1,.04-1.5.04-2.33,0-4.63-.3-6.84-.89-.06-.02-.46-.15-.92-.31.47,2.69,1.38,5.24,2.65,7.55l7.24-3.72c.16-.08.33-.17.49-.25-.44-.77-.82-1.58-1.13-2.42ZM15.49,41.49c-.48,0-.87-.39-.87-.87s.39-.87.87-.87.87.39.87.87-.39.87-.87.87Z"/>
    <path class="st1" d="M54.85,37.52c-1.9.12-3.78.25-5.61.4-1.59,5.71-6.33,10.11-12.23,11.2-.15,1.22-.31,2.58-.47,3.9l1.12,2.13.65-3.85c.03-.2.06-.34.08-.42s.06-.16.13-.23c.06-.07.16-.12.29-.14.09-.01.18,0,.27.03s.16.09.22.16c.06.07.09.14.11.22,0,.05.01.11,0,.18s-.01.13-.03.19c-.01.06-.02.13-.04.2l-.75,3.75c-.03.14-.05.28-.08.41s-.06.24-.11.35c-.05.1-.12.19-.21.27s-.21.13-.36.15c-.15.02-.28.01-.39-.03-.11-.04-.21-.1-.28-.19-.08-.08-.15-.18-.22-.3s-.13-.23-.2-.36l-.42-.75c-.18,1.42-.36,2.47-.6,3.24,11.51-.72,20.85-9.45,22.5-20.69-1.59.1-3.15.19-3.38.21ZM46.02,53.27c-.04.11-.14.21-.3.28l-2.71,1.32c-.22.11-.4.13-.54.08s-.27-.18-.37-.4l-1.8-3.71c-.07-.14-.1-.27-.11-.38,0-.11.03-.21.1-.3.07-.09.18-.16.32-.23l2.64-1.28c.16-.08.29-.1.41-.07.11.03.2.11.25.22.06.12.06.23.02.34s-.14.2-.3.28l-2.25,1.09.59,1.21,2.07-1c.15-.07.28-.09.39-.06.11.03.19.1.24.22.05.11.06.22.02.33s-.14.2-.29.27l-2.07,1,.68,1.4,2.33-1.13c.16-.08.29-.1.41-.06.11.03.2.11.26.23.06.12.06.23.02.34ZM50.54,49.79l-2.01,1.77c-.18.16-.35.23-.5.22-.15-.01-.3-.11-.46-.28l-2.79-3.17c-.15-.17-.22-.33-.22-.48s.06-.28.19-.39c.12-.11.26-.16.41-.14.15.01.3.11.45.28l2.64,2.99,1.69-1.49c.13-.12.27-.18.4-.18.13,0,.24.05.33.15.09.1.13.21.11.34-.02.13-.09.25-.23.37ZM52.94,41.49c-.48,0-.87-.39-.87-.87s.39-.87.87-.87.87.39.87.87-.39.87-.87.87Z"/>
    <g>
      <path class="st1" d="M27.26,50.66c-.09-.1-.32-.24-.66-.4l-.93-.43-.63,1.37.9.42c.24.11.46.18.64.22.18.03.34.02.48-.04.13-.06.24-.18.32-.36.06-.14.08-.28.06-.41-.02-.14-.08-.26-.18-.37Z"/>
      <path class="st1" d="M31.86,54.31c-.03-.6-.07-1.23-.1-1.88l-.88,1.76.98.12Z"/>
      <path class="st1" d="M30.48,54.98l-.34.67c-.13.26-.24.43-.33.52-.08.09-.21.12-.37.1-.14-.02-.25-.08-.35-.2s-.13-.24-.12-.36c0-.07.03-.15.07-.23.03-.08.09-.18.16-.32l1.82-3.37c.05-.1.11-.21.19-.35.07-.14.15-.25.22-.33.07-.08.15-.13.25-.18-.03-.61-.07-1.21-.1-1.79-3.39-.58-6.42-2.25-8.69-4.65-.57.21-1.15.43-1.72.63l-6.93,2.47c4.01,5.77,10.44,9.71,17.82,10.36-.03-.59-.09-1.6-.15-2.81l-1.42-.17ZM19.99,50.86c-.15.17-.3.27-.45.28s-.29-.03-.41-.14c-.12-.11-.19-.24-.19-.39,0-.15.07-.31.22-.49l2.62-3-.91-.8c-.14-.12-.22-.25-.24-.37-.01-.12.02-.24.11-.34.09-.11.2-.16.33-.16.13,0,.26.06.39.18l2.66,2.32c.14.13.22.25.24.38.01.13-.02.24-.11.34-.09.1-.2.16-.32.16-.13,0-.26-.06-.4-.19l-.91-.8-2.62,3ZM28.44,51.85c-.17.37-.41.62-.72.75-.31.13-.7.14-1.17.03.14.18.24.4.32.66.08.26.13.53.16.79.03.27.04.5.04.71s-.02.33-.05.4c-.03.07-.08.12-.15.17-.07.04-.15.07-.24.07s-.18-.02-.28-.06c-.11-.05-.2-.12-.25-.21-.05-.09-.09-.19-.11-.29s-.04-.26-.06-.46l-.09-.86c-.03-.31-.07-.56-.13-.74-.06-.18-.13-.32-.23-.43-.1-.1-.23-.19-.41-.28l-.35-.16-.74,1.6c-.1.21-.21.34-.35.4-.14.06-.28.05-.43-.02-.16-.07-.26-.18-.3-.33s-.01-.32.08-.52l1.76-3.83c.1-.22.22-.35.36-.41.14-.05.32-.03.54.07l1.64.76c.23.1.42.2.57.3.15.09.28.2.38.32.13.14.22.3.28.47.06.18.09.36.08.55-.01.19-.06.38-.14.56Z"/>
    </g>
    <polygon class="st0" points="42.02 41.52 43.48 43.2 40.99 42.56 40.43 43.03 45.28 44.39 42.56 40.92 42.02 41.52"/>
    <path class="st0" d="M49.38,35.03c-3.03-.14-6.06-.18-9.08.26-2.46.36-4.87.88-7.19,1.74-.51.19-1.02.4-1.57.62,0-.73,0-1.43,0-2.13,0-.03,0-.06,0-.08l3.87-1.05c1.66-.59,3.2-1.37,4.41-2.62,1.71-1.78,2.42-3.84,1.82-6.17-.59-2.28-2.28-3.66-4.59-4.4-2.46-.8-4.93-.66-7.38.13-1.27.41-2.46.96-3.37,1.92-.42.44-.78.91-.96,1.52.83-.48,1.63-.95,2.52-1.46v9.7s2.6-.6,3.27-1.21c0,0,0-5.8,0-8.69,0-.28,0-.55-.36-.72.15-.05.24-.09.33-.12,1.02-.31,2.06-.39,3.13-.25,2,.26,3.46,1.74,3.55,3.62.1,2.36-1,4.18-2.91,5.64-1.45,1.12-3.18,1.73-4.92,2.31-2.96.97-6,1.66-9.08,2.2-2.84.5-5.69.81-8.58.69-.28-.01-.57,0-.85,0,.07.05.15.06.23.08,2.7.72,5.46.96,8.26.76,3.46-.25,6.81-1.03,10.06-2.2.74-.27,1.5-.62,2.22-.91,0,0,6.9-2.72,7.25-8.45,0,0,.47,5.55-7.67,9h0s-3.49,1.64-3.49,1.64v2.91l-.35.2s-3.72,1.96-5.79,3.05c-.3.16-3.44,1.97-4.2,2.38,2.36-1.11,6.87-3,8.95-3.83,3.73-1.5,7.56-2.71,11.53-3.53,2.6-.54,5.22-.96,7.87-1.17,2.83-.23,5.65-.45,8.48-.62.47-.03.94-.07,1.41-.12.4,0-3.84-.5-6.79-.64Z"/>
    <g>
      <g>
        <path class="st0" d="M20.17,33.85l4.85-1.7-4.54-5.62,6.23,2.46v1.74l-4.17-2.68,4.1,4.66s-3.03.87-6.46,1.13Z"/>
        <path class="st0" d="M40.86,33.22s1.47-1.03,2.22-3.17l3.68-2.8-2.6.75,3.74-1.48-4.76,5.66,5.15,1.65-7.43-.62Z"/>
      </g>
      <path class="st0" d="M27.48,42.95v-.8s2.93-1.71,7.17-2.39l-.98,1.02s-2.43.43-6.19,2.18Z"/>
      <g>
        <polygon class="st0" points="44.07 38.4 43.77 39.26 48.08 38.02 44.07 38.4"/>
        <path class="st0" d="M26.14,38.84l-.03-1.73c-1.66.55-7.05,1.26-7.05,1.26"/>
      </g>
    </g>
    <g>
      <path class="st1" d="M15.98,23.9c-.1-.05-.2-.07-.29-.07-.05,0-.1,0-.15.02-.08.03-.26.15-.5.64l-.22.46,1.07.52.22-.46c.1-.21.16-.39.18-.54.02-.13,0-.24-.04-.33-.05-.09-.14-.17-.27-.23Z"/>
      <polygon class="st1" points="19.57 21.12 20.22 20.39 18.89 19.85 19.57 21.12"/>
      <path class="st1" d="M34.2,9.41c-13.42,0-24.3,10.89-24.3,24.32,0,.26.01.52.02.78.96.12,2.15.21,3.64.26,1.57.04,3.21-.1,5.04-.37,0-.22-.02-.44-.02-.66,0-8.62,7.01-15.64,15.62-15.64s15.39,6.79,15.61,15.22c1.56.08,3.28.25,4.2.34.41.04,2.63.3,4.47.52,0-.15.01-.29.01-.44,0-13.43-10.88-24.32-24.3-24.32ZM14.48,32.18c-.48,0-.87-.39-.87-.87s.39-.87.87-.87.87.39.87.87-.39.87-.87.87ZM18.58,27.59c-.1.2-.25.33-.44.39-.06.02-.13.03-.2.03-.14,0-.29-.04-.45-.12l-3.65-1.77c-.26-.13-.43-.29-.49-.49-.06-.19-.03-.42.1-.68l.6-1.23c.19-.39.36-.66.52-.85.17-.19.36-.33.59-.43.19-.08.39-.12.6-.12.04,0,.07,0,.11,0,.24.02.49.08.74.21.54.26.87.64.99,1.11.12.46.02,1.02-.28,1.65l-.33.69,1.15.56c.24.12.4.27.47.46.08.19.07.39-.02.58ZM23.1,21.02c-.08.09-.16.15-.26.18-.08.03-.16.05-.24.05-.13,0-.23-.03-.36-.07-.11-.04-.21-.07-.29-.1l-.53-.21-1.24,1.38.27.51c.14.27.22.46.25.6.02.12.01.32-.18.53-.13.14-.29.22-.49.23h-.06c-.17,0-.32-.05-.44-.16-.07-.06-.13-.14-.18-.22-.04-.07-.1-.18-.17-.32l-1.81-3.63c-.07-.14-.12-.28-.15-.4-.03-.14-.04-.28,0-.42.03-.15.11-.29.23-.42.12-.14.26-.23.4-.28.1-.03.2-.05.3-.05.04,0,.08,0,.12,0,.12.02.24.04.36.09.11.04.24.09.42.16l3.44,1.25c.29.1.48.2.59.3.13.12.21.28.22.48.01.2-.05.38-.19.53ZM26.92,18.28c-.22.3-.53.58-.93.81-.48.27-.93.41-1.35.41h-.01c-.31,0-.61-.08-.88-.23-.28-.15-.49-.34-.62-.57-.09-.16-.11-.34-.07-.51.05-.18.16-.32.33-.42.1-.06.21-.09.31-.09.05,0,.09,0,.14.02.13.03.27.1.42.22.13.1.25.18.36.23.08.04.18.06.28.06.16,0,.31-.06.48-.16.23-.13.39-.29.47-.48.07-.17.07-.3,0-.44-.06-.1-.13-.17-.23-.19-.06-.02-.13-.03-.2-.03-.06,0-.12,0-.19.02-.17.03-.39.09-.66.17-.38.11-.73.19-1.02.21-.06,0-.12,0-.17,0-.25,0-.48-.05-.7-.14-.27-.12-.5-.34-.67-.64-.17-.29-.23-.59-.21-.91.03-.31.16-.62.38-.9.22-.27.51-.52.89-.73.3-.17.59-.28.85-.34.15-.03.29-.04.43-.04.11,0,.22,0,.32.03.23.04.42.12.58.23.16.11.28.24.37.39.09.16.11.33.08.51-.04.19-.15.34-.32.44-.11.06-.22.09-.32.09-.04,0-.08,0-.12-.01-.11-.03-.24-.09-.39-.18-.16-.11-.31-.18-.45-.2,0,0-.01,0-.02,0-.16,0-.31.05-.48.15-.2.11-.33.25-.4.39-.08.17-.04.26-.01.31.03.05.07.09.11.11.06.02.12.04.2.04.11,0,.21-.01.3-.03.1-.02.27-.07.5-.13.29-.09.57-.16.83-.21.19-.04.37-.05.53-.05.07,0,.14,0,.21,0,.24.02.46.1.66.23.2.13.38.33.53.59.18.31.26.64.24.98s-.14.67-.37.99ZM32.57,15.94c-.12.32-.34.6-.65.83-.3.22-.68.39-1.13.48-.25.05-.5.08-.72.08-.25,0-.49-.04-.71-.11-.29-.1-.55-.26-.77-.48-.22-.23-.36-.47-.42-.73-.04-.18,0-.35.09-.51.1-.16.25-.26.44-.3.05-.01.1-.02.14-.02.11,0,.21.03.31.09.12.07.23.18.33.34.09.13.18.25.27.33.08.07.17.12.29.15.05.01.11.02.18.02.08,0,.18-.01.29-.03.26-.06.46-.16.59-.31.12-.14.16-.27.13-.42-.03-.12-.08-.2-.16-.25-.1-.07-.22-.11-.37-.12-.17-.02-.4-.03-.68-.04-.4,0-.75-.04-1.04-.11-.31-.07-.57-.2-.79-.39-.22-.2-.37-.47-.44-.81-.07-.32-.04-.64.08-.93.12-.29.34-.54.64-.74.29-.2.65-.34,1.07-.43.23-.05.46-.08.66-.08.09,0,.17,0,.26.01.27.03.51.1.72.21.2.11.37.24.49.39.12.15.2.31.23.48.04.17.01.35-.08.51-.09.17-.25.28-.43.32-.06.01-.11.02-.16.02-.11,0-.2-.03-.28-.08-.09-.06-.2-.15-.31-.29-.12-.16-.24-.27-.37-.33-.06-.03-.13-.04-.23-.04-.09,0-.19.01-.3.04-.22.05-.39.13-.5.25-.12.14-.12.23-.11.3.01.06.04.1.07.14.05.04.11.08.2.1.1.03.19.05.28.05.11,0,.28.02.52.03.31,0,.6.02.85.06.27.03.51.1.72.18.22.09.41.24.56.42.15.18.26.43.32.72.08.35.05.69-.07,1.01ZM35.47,16.05c0,.27-.08.48-.22.62-.14.14-.32.22-.53.22h-.02c-.21,0-.39-.09-.53-.24-.13-.15-.19-.36-.19-.63l.1-4.15c0-.27.08-.48.22-.62.14-.14.31-.22.52-.22.24,0,.42.09.56.24.13.15.2.36.19.63l-.1,4.15ZM42.03,16.6c-.21.31-.48.56-.78.75-.31.19-.65.3-1.02.34-.08,0-.17.01-.26.01-.29,0-.61-.05-.93-.14-.42-.12-.78-.3-1.08-.54-.3-.24-.53-.52-.68-.84-.15-.32-.24-.67-.25-1.06-.01-.38.04-.77.16-1.17.12-.41.29-.77.51-1.08.22-.31.49-.56.79-.74.3-.18.64-.29,1.01-.32.08,0,.16-.01.24-.01.29,0,.6.05.92.14.56.16,1.01.42,1.35.77.34.35.56.78.64,1.27.08.48.04,1-.12,1.56-.12.41-.29.77-.5,1.08ZM46.06,21.32c-.16,0-.31-.06-.47-.17-.1-.07-.17-.15-.23-.24-.06-.09-.1-.19-.13-.31-.02-.1-.03-.21-.03-.33,0-.1,0-.2,0-.3l.18-2.96-1.42,1.92c-.15.2-.32.33-.51.36-.05,0-.09.01-.14.01-.15,0-.28-.05-.41-.14-.17-.13-.27-.3-.28-.49-.02-.19.05-.39.2-.59l2.42-3.26c.12-.16.23-.27.34-.34.13-.07.26-.11.41-.11.22.01.37.07.5.16.1.07.18.16.23.25.05.09.08.18.09.28.01.09.01.19,0,.3l-.02.31-.16,3.02,1.45-1.96c.15-.2.32-.33.5-.37.05-.01.1-.02.14-.02.14,0,.28.05.4.14.17.13.27.3.28.49.01.19-.05.38-.21.59l-2.46,3.33c-.21.28-.45.43-.7.43ZM47.93,23.41h-.04c-.2-.01-.38-.11-.52-.28-.13-.16-.19-.36-.15-.56.03-.2.15-.38.36-.55l3.22-2.61c.19-.16.39-.24.57-.24.24.01.42.11.55.27.14.17.19.36.16.56-.03.2-.15.38-.36.56l-3.22,2.61c-.2.16-.39.24-.58.24ZM54.11,32.18c-.48,0-.87-.39-.87-.87s.39-.87.87-.87.87.39.87.87-.39.87-.87.87ZM55.01,25.62c-.06.22-.15.41-.27.56-.12.15-.26.27-.41.34-.1.05-.2.07-.3.07-.07,0-.14-.01-.21-.03-.19-.05-.33-.17-.41-.35-.08-.16-.09-.31-.05-.45.04-.11.11-.23.21-.37.12-.15.2-.3.24-.44.02-.08.02-.24-.11-.51-.1-.21-.22-.35-.36-.43-.07-.04-.14-.06-.2-.06-.04,0-.08,0-.11.03-.05.03-.09.06-.11.1-.03.06-.05.13-.05.21,0,.1,0,.2.01.29.02.1.05.27.09.51.07.3.11.59.14.85.03.27.02.52-.01.74-.04.24-.14.45-.28.64-.14.19-.35.35-.62.48-.25.12-.51.18-.77.18-.08,0-.15,0-.23-.01-.34-.04-.66-.19-.95-.44-.29-.24-.53-.58-.73-.99-.24-.5-.34-.97-.3-1.39.03-.31.13-.6.29-.86.17-.27.37-.46.61-.57.09-.05.19-.07.29-.07.07,0,.15.01.22.04.17.06.31.18.39.36.07.15.08.3.04.46-.04.13-.12.26-.25.4-.11.12-.2.23-.26.34-.05.09-.08.2-.08.32,0,.12.04.28.12.45.12.24.26.41.44.51.09.05.17.07.25.07.06,0,.12-.01.19-.04.11-.05.18-.12.21-.21.04-.11.05-.24.04-.38-.02-.17-.06-.39-.12-.67-.08-.39-.13-.74-.13-1.03,0-.31.07-.6.2-.86.14-.26.37-.47.69-.62.22-.1.44-.16.67-.16.08,0,.17,0,.25.02.31.05.6.2.87.45.26.24.48.55.66.94.15.31.24.61.27.87.03.27.02.52-.04.75Z"/>
      <path class="st1" d="M40.91,13.51c-.16-.18-.35-.3-.6-.37-.12-.04-.24-.05-.36-.05-.05,0-.1,0-.15,0-.17.02-.32.08-.46.17-.14.09-.28.24-.4.42-.13.19-.23.42-.31.68-.08.27-.12.52-.11.75,0,.22.04.42.12.58.08.16.17.3.3.4.13.11.28.19.45.24.12.04.24.05.36.05.1,0,.21-.01.31-.04.22-.06.42-.19.6-.39.19-.21.34-.5.45-.87.1-.34.13-.65.1-.93-.03-.27-.13-.48-.28-.65Z"/>
    </g>
    <path class="st1" d="M36.34,54.66c.07-.53.14-1.09.2-1.64l-.69-1.31c-.12-.24-.23-.41-.33-.51-.1-.1-.24-.14-.42-.11-.15.02-.27.1-.36.22-.08.12-.12.24-.1.37,0,.05.03.11.05.18.03.07.06.13.09.19.03.06.07.12.1.18l1.43,2.55s0-.07.01-.11Z"/>
    <path class="st1" d="M33.93,55.71l-1-3.69c-.05-.18-.08-.33-.11-.44-.03-.11-.07-.21-.12-.31s-.13-.18-.22-.25-.22-.11-.37-.13c-.15-.02-.28,0-.39.04-.01,0-.02.02-.03.02.03.5.05.99.08,1.48l.19-.39.55,2.35-.64-.08c.02.29.03.57.05.85l.79.1.18.71c.02.09.05.19.09.31.03.12.07.2.11.26.04.06.08.11.14.15.06.04.13.06.22.07.15.02.28-.02.4-.11.12-.09.18-.2.2-.33.01-.12-.02-.32-.1-.6Z"/>
    <path class="st0" d="M40.56,38.67s-1.87,4.28-8.66,4.17c0,0,.21.14.57.32l1.77,6.44,1.82-5.79c.36-.03.73-.09,1.11-.19,1.31-.43,3.74-1.59,5.3-5.04l-1.93.1Z"/>
  </g>
  <g>
    <path class="st1" d="M73.89,35.53h-3.23v4.66c0,.67-.17,1.17-.5,1.51-.33.34-.75.52-1.26.52s-.96-.17-1.28-.51c-.33-.34-.49-.84-.49-1.5v-12.68c0-.73.18-1.26.54-1.57.36-.31.92-.47,1.7-.47h4.53c1.34,0,2.37.1,3.09.29.71.19,1.33.5,1.85.93.52.43.91.97,1.18,1.59s.4,1.34.4,2.12c0,1.68-.55,2.95-1.64,3.81s-2.72,1.3-4.89,1.3ZM73.04,27.99h-2.38v5.03h2.38c.83,0,1.53-.08,2.09-.25.56-.16.99-.43,1.28-.81.29-.37.44-.86.44-1.47,0-.73-.23-1.32-.68-1.77-.51-.49-1.55-.73-3.13-.73Z"/>
    <path class="st1" d="M92.38,40.07l-.83-2.06h-7.09l-.83,2.11c-.33.82-.6,1.38-.83,1.67s-.61.43-1.13.43c-.44,0-.84-.15-1.18-.46-.34-.31-.51-.65-.51-1.04,0-.22.04-.46.12-.7.08-.24.21-.57.39-1l4.46-10.68c.13-.31.28-.67.46-1.11.18-.43.37-.79.57-1.07.2-.28.47-.51.8-.69.33-.18.74-.26,1.22-.26s.9.09,1.23.26.59.4.8.68.37.57.51.89c.14.32.31.74.53,1.27l4.55,10.61c.36.81.54,1.39.54,1.76s-.17.73-.51,1.05-.74.48-1.22.48c-.28,0-.52-.05-.71-.14-.2-.09-.36-.22-.5-.38s-.28-.41-.43-.74c-.15-.33-.29-.63-.4-.88ZM85.39,35.51h5.21l-2.63-6.79-2.58,6.79Z"/>
    <path class="st1" d="M111.99,37c0,.99-.27,1.89-.81,2.68-.54.79-1.34,1.41-2.38,1.86-1.05.45-2.29.67-3.72.67-1.72,0-3.14-.31-4.26-.92-.79-.44-1.44-1.03-1.93-1.77-.5-.74-.74-1.45-.74-2.15,0-.4.15-.75.45-1.04.3-.29.68-.43,1.14-.43.37,0,.69.11.95.34.26.22.48.56.66,1,.22.52.46.96.72,1.31.26.35.62.64,1.09.87s1.08.34,1.84.34c1.05,0,1.9-.23,2.55-.69.65-.46.98-1.03.98-1.72,0-.55-.18-.99-.53-1.33-.35-.34-.81-.6-1.37-.78-.56-.18-1.31-.37-2.24-.57-1.25-.28-2.3-.6-3.15-.97-.84-.37-1.51-.87-2.01-1.51-.5-.64-.74-1.43-.74-2.38s.26-1.71.79-2.41,1.28-1.24,2.27-1.62c.99-.38,2.16-.57,3.5-.57,1.07,0,2,.13,2.78.38.78.25,1.43.58,1.94,1,.51.42.89.85,1.13,1.31s.36.9.36,1.33c0,.4-.15.75-.45,1.07-.3.32-.67.48-1.11.48-.4,0-.71-.1-.92-.29-.21-.19-.44-.5-.68-.94-.32-.62-.7-1.11-1.14-1.45-.44-.35-1.16-.52-2.14-.52-.91,0-1.65.19-2.21.57-.56.38-.84.83-.84,1.36,0,.33.1.61.29.85s.45.45.79.62.67.31,1.01.4.9.24,1.69.43c.98.22,1.87.46,2.67.72.8.26,1.47.58,2.03.95.56.37.99.85,1.31,1.42.31.57.47,1.27.47,2.1Z"/>
    <path class="st1" d="M128.24,37c0,.99-.27,1.89-.81,2.68-.54.79-1.34,1.41-2.38,1.86-1.05.45-2.29.67-3.72.67-1.72,0-3.14-.31-4.26-.92-.79-.44-1.44-1.03-1.93-1.77-.5-.74-.74-1.45-.74-2.15,0-.4.15-.75.45-1.04.3-.29.68-.43,1.14-.43.37,0,.69.11.95.34.26.22.48.56.66,1,.22.52.46.96.72,1.31.26.35.62.64,1.09.87s1.08.34,1.84.34c1.05,0,1.9-.23,2.55-.69.65-.46.98-1.03.98-1.72,0-.55-.18-.99-.53-1.33-.35-.34-.81-.6-1.37-.78-.56-.18-1.31-.37-2.24-.57-1.25-.28-2.3-.6-3.15-.97-.84-.37-1.51-.87-2.01-1.51-.5-.64-.74-1.43-.74-2.38s.26-1.71.79-2.41,1.28-1.24,2.27-1.62c.99-.38,2.16-.57,3.5-.57,1.07,0,2,.13,2.78.38.78.25,1.43.58,1.94,1,.52.42.89.85,1.13,1.31.24.46.36.9.36,1.33,0,.4-.15.75-.45,1.07-.3.32-.67.48-1.11.48-.4,0-.71-.1-.92-.29-.21-.19-.44-.5-.68-.94-.32-.62-.7-1.11-1.14-1.45-.45-.35-1.16-.52-2.14-.52-.91,0-1.65.19-2.21.57-.56.38-.84.83-.84,1.36,0,.33.1.61.29.85s.45.45.79.62.67.31,1.01.4c.34.1.9.24,1.69.43.98.22,1.87.46,2.67.72.8.26,1.47.58,2.03.95.56.37,1,.85,1.31,1.42s.47,1.27.47,2.1Z"/>
    <path class="st1" d="M131.38,40.18v-12.96c0-.67.16-1.18.49-1.51.32-.34.74-.5,1.26-.5s.96.17,1.29.5c.33.33.49.84.49,1.52v12.96c0,.68-.17,1.19-.49,1.53-.33.34-.76.5-1.29.5s-.93-.17-1.25-.51c-.33-.34-.49-.85-.49-1.52Z"/>
    <path class="st1" d="M146.53,25.21c1.81,0,3.36.35,4.66,1.04,1.3.69,2.28,1.68,2.94,2.95s1,2.77,1,4.49c0,1.27-.18,2.43-.55,3.47-.36,1.04-.91,1.94-1.64,2.7s-1.63,1.35-2.69,1.75-2.28.61-3.65.61-2.58-.21-3.66-.62c-1.08-.42-1.98-1-2.7-1.76-.72-.76-1.27-1.66-1.64-2.73-.37-1.06-.55-2.21-.55-3.44s.19-2.42.58-3.48.94-1.95,1.67-2.69c.73-.74,1.62-1.31,2.66-1.7s2.24-.59,3.57-.59ZM151.55,33.67c0-1.2-.21-2.25-.62-3.13s-1-1.55-1.77-2c-.77-.45-1.64-.68-2.63-.68-.71,0-1.36.13-1.96.38-.6.25-1.11.62-1.55,1.09-.43.48-.77,1.09-1.02,1.83-.25.74-.38,1.58-.38,2.51s.13,1.78.38,2.54c.25.76.6,1.38,1.06,1.88.46.5.98.87,1.57,1.12.59.25,1.24.37,1.94.37.9,0,1.73-.21,2.49-.64.76-.43,1.36-1.08,1.81-1.97s.67-1.99.67-3.29Z"/>
    <path class="st1" d="M162.75,27.2l6.79,9.69v-9.78c0-.64.14-1.11.43-1.43s.68-.48,1.17-.48.91.16,1.2.48.44.79.44,1.43v12.94c0,1.44-.63,2.17-1.9,2.17-.32,0-.6-.04-.86-.13s-.49-.22-.71-.41c-.22-.19-.43-.41-.62-.66s-.38-.51-.57-.77l-6.62-9.58v9.64c0,.63-.15,1.1-.46,1.42-.31.32-.71.48-1.19.48s-.9-.16-1.2-.49c-.3-.33-.45-.8-.45-1.42v-12.69c0-.54.06-.96.19-1.27.15-.34.4-.61.75-.82.35-.21.73-.32,1.13-.32.32,0,.59.05.81.15.23.1.42.23.6.39.17.16.34.38.52.64.18.26.36.53.55.82Z"/>
    <path class="st1" d="M176.79,40.18v-12.96c0-.67.16-1.18.49-1.51.32-.34.74-.5,1.26-.5s.96.17,1.29.5c.33.33.49.84.49,1.52v12.96c0,.68-.17,1.19-.49,1.53-.33.34-.76.5-1.29.5s-.93-.17-1.25-.51c-.33-.34-.49-.85-.49-1.52Z"/>
    <path class="st1" d="M197.52,37c0,.99-.27,1.89-.81,2.68-.54.79-1.34,1.41-2.38,1.86s-2.29.67-3.72.67c-1.72,0-3.14-.31-4.26-.92-.79-.44-1.44-1.03-1.93-1.77-.5-.74-.74-1.45-.74-2.15,0-.4.15-.75.45-1.04.3-.29.68-.43,1.14-.43.37,0,.69.11.95.34.26.22.48.56.66,1,.22.52.46.96.72,1.31s.62.64,1.09.87,1.08.34,1.84.34c1.05,0,1.9-.23,2.55-.69.65-.46.98-1.03.98-1.72,0-.55-.18-.99-.53-1.33-.35-.34-.81-.6-1.37-.78s-1.31-.37-2.24-.57c-1.25-.28-2.3-.6-3.14-.97-.84-.37-1.51-.87-2.01-1.51-.5-.64-.74-1.43-.74-2.38s.26-1.71.78-2.41c.52-.7,1.28-1.24,2.27-1.62.99-.38,2.16-.57,3.5-.57,1.07,0,2,.13,2.78.38.78.25,1.43.58,1.94,1,.51.42.89.85,1.13,1.31.24.46.36.9.36,1.33,0,.4-.15.75-.45,1.07-.3.32-.67.48-1.11.48-.4,0-.71-.1-.92-.29-.21-.19-.44-.5-.68-.94-.32-.62-.7-1.11-1.14-1.45-.44-.35-1.16-.52-2.14-.52-.91,0-1.65.19-2.21.57-.56.38-.84.83-.84,1.36,0,.33.1.61.29.85s.45.45.78.62c.33.17.67.31,1.01.4.34.1.9.24,1.69.43.98.22,1.87.46,2.67.72.8.26,1.47.58,2.03.95.56.37,1,.85,1.31,1.42s.47,1.27.47,2.1Z"/>
  </g>
  <g>
    <path class="st0" d="M216.24,28.33h-3.86v11.95c0,.69-.16,1.2-.49,1.53-.33.33-.75.5-1.26.5s-.95-.17-1.28-.5c-.33-.34-.5-.85-.5-1.53v-11.95h-3.86c-.6,0-1.05-.13-1.35-.38-.29-.25-.44-.58-.44-.99s.15-.76.46-1.01c.31-.25.75-.37,1.33-.37h11.26c.61,0,1.07.13,1.37.38.3.25.45.59.45,1s-.15.74-.45.99c-.3.25-.76.38-1.36.38Z"/>
    <path class="st0" d="M224.91,35h-1.24v5.28c0,.7-.16,1.21-.49,1.54-.33.33-.75.49-1.28.49-.56,0-1-.17-1.31-.52s-.47-.85-.47-1.51v-12.65c0-.72.17-1.24.51-1.56s.89-.48,1.66-.48h5.76c.79,0,1.47.03,2.04.1.56.06,1.07.19,1.53.39.55.22,1.03.53,1.46.93.42.4.74.87.96,1.41.22.53.33,1.1.33,1.7,0,1.23-.37,2.21-1.1,2.94-.74.73-1.85,1.25-3.35,1.56.63.31,1.23.78,1.8,1.39.57.61,1.08,1.27,1.53,1.96.45.69.8,1.32,1.05,1.87.25.56.38.94.38,1.15s-.07.43-.22.65c-.15.21-.35.38-.6.5-.25.12-.55.19-.88.19-.4,0-.73-.09-1-.26-.27-.18-.5-.4-.7-.67-.19-.27-.46-.67-.79-1.19l-1.42-2.22c-.51-.81-.96-1.44-1.37-1.86-.4-.43-.81-.72-1.22-.88-.41-.16-.93-.24-1.56-.24ZM226.93,28.09h-3.27v4.52h3.17c.85,0,1.57-.07,2.15-.21.58-.14,1.02-.37,1.33-.71.31-.33.46-.79.46-1.37,0-.46-.12-.86-.37-1.21-.25-.35-.59-.61-1.03-.78-.41-.16-1.23-.25-2.44-.25Z"/>
    <path class="st0" d="M248.9,40.17l-.83-2.06h-7.11l-.83,2.11c-.33.82-.6,1.38-.83,1.67-.23.29-.61.43-1.13.43-.45,0-.84-.15-1.18-.46-.34-.31-.51-.65-.51-1.04,0-.22.04-.46.12-.7.08-.24.21-.57.39-1l4.47-10.68c.13-.31.28-.67.46-1.1.18-.43.37-.79.57-1.07.2-.28.47-.51.8-.69.33-.18.74-.26,1.22-.26s.9.09,1.23.26c.33.18.6.4.8.68.2.28.37.57.51.89.14.32.32.74.53,1.27l4.57,10.61c.36.81.54,1.4.54,1.76s-.17.73-.51,1.05c-.34.32-.75.48-1.22.48-.28,0-.52-.05-.72-.14-.2-.09-.37-.22-.5-.38-.14-.16-.28-.41-.44-.74-.16-.33-.29-.63-.4-.88ZM241.89,35.6h5.22l-2.64-6.79-2.59,6.79Z"/>
    <path class="st0" d="M256.63,27.49l3.96,11.03,3.97-11.11c.21-.58.36-.99.47-1.22.1-.23.27-.43.51-.62.24-.18.56-.28.98-.28.3,0,.58.07.84.21.26.14.46.33.61.57.15.24.22.47.22.71,0,.16-.02.34-.07.53-.05.19-.11.38-.18.56-.07.18-.14.37-.21.57l-4.23,10.75c-.15.41-.3.8-.45,1.17-.15.37-.33.7-.52.98-.2.28-.46.51-.79.69-.33.18-.73.27-1.21.27s-.88-.09-1.21-.26c-.33-.18-.6-.41-.8-.7-.2-.29-.38-.62-.53-.98-.15-.37-.3-.76-.45-1.17l-4.16-10.66c-.07-.19-.15-.39-.22-.57-.08-.19-.14-.39-.19-.61-.05-.22-.08-.4-.08-.55,0-.38.16-.73.49-1.04.33-.31.74-.47,1.23-.47.6,0,1.03.17,1.28.52.25.35.51.9.77,1.67Z"/>
    <path class="st0" d="M282.37,28.15h-7.98v4.04h7.35c.54,0,.94.11,1.21.34.27.23.4.53.4.9s-.13.68-.39.91c-.26.24-.67.35-1.22.35h-7.35v4.68h8.25c.56,0,.98.12,1.26.36.28.24.42.57.42.97s-.14.7-.42.95c-.28.24-.7.36-1.26.36h-9.62c-.77,0-1.33-.16-1.66-.48-.34-.32-.51-.84-.51-1.56v-12.36c0-.48.08-.87.23-1.17.15-.3.39-.52.71-.66.32-.14.73-.21,1.23-.21h9.35c.56,0,.98.12,1.26.35.27.24.41.54.41.93s-.14.7-.41.94c-.27.24-.69.35-1.26.35Z"/>
    <path class="st0" d="M290.61,27.32v11.97h7.18c.57,0,1.01.13,1.32.39.31.26.46.59.46.99s-.15.73-.45.98c-.3.25-.74.38-1.32.38h-8.55c-.77,0-1.33-.16-1.66-.48-.34-.32-.51-.84-.51-1.56v-12.67c0-.67.16-1.18.48-1.51.32-.34.75-.5,1.27-.5s.96.17,1.29.5c.33.33.5.84.5,1.52Z"/>
  </g>
  <g>
    <path class="st0" d="M70.56,56.65v-3.48l-2.77-4.15c-.24-.37-.41-.67-.51-.88s-.15-.39-.15-.55c0-.25.1-.47.31-.66.2-.18.45-.28.75-.28.31,0,.55.09.71.26s.41.52.73,1.03l2.12,3.33,2.14-3.33.32-.52c.09-.14.18-.27.29-.39.11-.12.22-.22.35-.28.13-.06.29-.1.47-.1.29,0,.53.09.72.27.19.18.29.39.29.63,0,.19-.05.39-.15.58-.1.19-.27.46-.5.81l-2.84,4.21v3.48c0,.45-.11.79-.32,1.02s-.49.34-.83.34-.62-.11-.83-.33c-.21-.22-.32-.56-.32-1.02Z"/>
    <path class="st0" d="M85.68,53.86c0,.61-.1,1.17-.29,1.68-.2.51-.48.96-.85,1.32-.37.37-.81.65-1.33.85-.52.2-1.1.3-1.74.3s-1.21-.1-1.72-.3-.95-.48-1.33-.86c-.37-.37-.66-.81-.85-1.32-.19-.51-.29-1.07-.29-1.68s.1-1.18.29-1.7c.2-.51.48-.95.84-1.32.37-.36.81-.64,1.33-.84.52-.2,1.09-.3,1.72-.3s1.22.1,1.74.3c.52.2.97.48,1.34.85.37.37.65.81.85,1.32s.29,1.07.29,1.68ZM79.58,48.7c-.22,0-.42-.07-.6-.22s-.27-.35-.27-.61.09-.45.26-.61.37-.24.61-.24.44.07.61.21c.17.14.26.35.26.63,0,.26-.09.46-.26.61-.18.15-.38.22-.61.22ZM83.56,53.86c0-.83-.19-1.48-.57-1.94s-.89-.7-1.53-.7c-.41,0-.78.1-1.09.31-.31.21-.56.51-.73.92s-.26.88-.26,1.41.08,1,.25,1.4c.17.4.41.7.72.92.31.21.68.32,1.1.32.64,0,1.15-.23,1.53-.7.38-.47.57-1.11.57-1.93ZM82.59,47.02c.14,0,.29.04.43.11s.25.18.32.31.12.27.12.42c0,.26-.09.46-.26.61s-.37.22-.61.22-.43-.07-.61-.22-.27-.35-.27-.61c0-.22.09-.42.26-.59s.38-.25.61-.25Z"/>
    <path class="st0" d="M89.26,50.83v.25c.37-.47.78-.82,1.22-1.04.44-.22.95-.33,1.52-.33s1.05.12,1.49.35c.44.23.77.57.98.99.14.25.23.52.27.81.04.29.06.66.06,1.11v3.8c0,.41-.1.72-.29.93s-.44.31-.75.31-.57-.11-.77-.32c-.2-.21-.29-.52-.29-.92v-3.4c0-.67-.1-1.19-.29-1.54-.19-.36-.58-.53-1.16-.53-.38,0-.72.11-1.03.33s-.54.52-.68.89c-.1.3-.15.87-.15,1.71v2.56c0,.41-.1.72-.3.93-.2.21-.46.31-.77.31s-.55-.11-.75-.32c-.2-.21-.29-.52-.29-.92v-5.9c0-.39.09-.68.26-.87.17-.19.41-.29.72-.29.19,0,.35.04.5.13.15.09.27.21.36.38.09.17.14.38.14.62Z"/>
    <path class="st0" d="M102.79,54.36h-4.13c0,.46.1.87.29,1.23.19.35.44.62.75.8.31.18.66.27,1.03.27.25,0,.48-.03.69-.09.21-.06.41-.15.61-.27.2-.12.38-.25.54-.39.16-.14.38-.33.64-.57.11-.09.26-.13.46-.13.22,0,.39.06.53.17.13.11.2.28.2.49,0,.18-.07.4-.22.65-.15.25-.37.48-.68.71-.3.23-.68.42-1.14.56s-.98.22-1.57.22c-1.36,0-2.41-.37-3.16-1.12-.75-.75-1.13-1.76-1.13-3.04,0-.6.09-1.16.28-1.68s.46-.96.81-1.33c.36-.37.79-.65,1.31-.85.52-.2,1.1-.3,1.73-.3.82,0,1.53.17,2.12.5.59.34,1.03.77,1.33,1.31.29.53.44,1.08.44,1.63,0,.51-.15.85-.46,1-.3.15-.73.23-1.28.23ZM98.66,53.2h3.83c-.05-.7-.25-1.22-.58-1.57-.34-.35-.78-.52-1.33-.52s-.96.18-1.29.53c-.34.35-.54.87-.61,1.56Z"/>
    <path class="st0" d="M106.42,49.88h.23v-1.23c0-.33,0-.59.03-.77.02-.19.07-.35.15-.48.08-.14.2-.25.36-.34.15-.09.33-.13.52-.13.27,0,.51.1.73.29.14.13.24.29.27.47s.06.45.06.8v1.39h.77c.3,0,.53.07.68.21.16.14.24.31.24.53,0,.27-.11.47-.34.58-.22.11-.54.16-.96.16h-.39v3.75c0,.32.01.56.03.74s.09.31.19.42c.1.11.26.16.49.16.12,0,.29-.02.5-.06.21-.04.38-.06.49-.06.17,0,.32.07.46.2.14.13.2.3.2.49,0,.33-.19.58-.56.76s-.9.26-1.6.26c-.66,0-1.16-.11-1.5-.32s-.56-.51-.67-.89c-.11-.38-.16-.88-.16-1.52v-3.92h-.28c-.3,0-.54-.07-.7-.21-.16-.14-.24-.32-.24-.53s.08-.39.25-.53c.17-.14.41-.21.73-.21Z"/>
    <path class="st0" d="M112.98,48.76c-.29,0-.54-.09-.75-.26-.21-.17-.31-.42-.31-.74,0-.29.11-.53.32-.71.21-.19.46-.28.75-.28s.51.09.73.25c.21.17.32.42.32.74s-.1.56-.31.74c-.21.18-.45.27-.73.27ZM114.02,50.86v5.9c0,.41-.1.72-.3.93s-.46.31-.77.31-.56-.11-.75-.32-.29-.52-.29-.92v-5.84c0-.4.1-.71.29-.91.19-.2.44-.31.75-.31s.56.1.77.31c.2.2.3.49.3.85Z"/>
    <path class="st0" d="M123.22,54.01v2.71c0,.43-.1.75-.3.96s-.47.32-.8.32-.58-.11-.78-.32c-.2-.21-.3-.54-.3-.96v-3.25c0-.51-.02-.91-.05-1.2-.04-.28-.13-.52-.29-.7-.16-.18-.41-.27-.76-.27-.69,0-1.15.23-1.36.69-.22.46-.33,1.12-.33,1.97v2.76c0,.42-.1.74-.3.96-.2.22-.46.33-.78.33s-.58-.11-.78-.33c-.2-.22-.31-.54-.31-.96v-5.84c0-.38.09-.68.27-.88.18-.2.42-.3.72-.3s.53.09.72.28.29.45.29.77v.19c.37-.42.76-.74,1.17-.93.42-.2.88-.3,1.39-.3s.99.1,1.37.31c.38.2.7.51.94.93.36-.42.74-.73,1.14-.93.41-.2.86-.3,1.35-.3.58,0,1.07.11,1.49.33.42.22.73.53.94.94.18.37.27.95.27,1.74v3.99c0,.43-.1.75-.3.96s-.47.32-.8.32-.58-.11-.78-.33-.31-.54-.31-.96v-3.43c0-.44-.02-.79-.06-1.05-.04-.26-.14-.49-.31-.67s-.43-.27-.77-.27c-.28,0-.54.08-.79.24-.25.16-.44.37-.58.64-.15.34-.23.95-.23,1.82Z"/>
    <path class="st0" d="M142.92,54.53c0,.66-.18,1.26-.53,1.79-.35.53-.87.94-1.55,1.24s-1.49.45-2.42.45c-1.12,0-2.04-.2-2.77-.61-.51-.29-.93-.69-1.26-1.18-.32-.49-.48-.97-.48-1.43,0-.27.1-.5.29-.69.19-.19.44-.29.74-.29.24,0,.45.07.61.22s.31.37.43.67c.14.35.3.64.47.88.17.23.4.43.71.58.3.15.7.23,1.2.23.68,0,1.23-.15,1.66-.46s.64-.69.64-1.15c0-.36-.11-.66-.34-.89-.23-.23-.53-.4-.89-.52s-.85-.25-1.46-.38c-.81-.18-1.5-.4-2.04-.65s-.98-.58-1.31-1.01-.48-.96-.48-1.59.17-1.14.51-1.61c.34-.47.83-.83,1.48-1.08.64-.25,1.4-.38,2.27-.38.7,0,1.3.08,1.8.25.51.17.93.39,1.26.67s.58.57.73.87c.15.3.23.6.23.89,0,.26-.1.5-.29.71-.19.21-.43.32-.72.32-.26,0-.46-.06-.6-.19s-.29-.34-.44-.62c-.21-.41-.45-.74-.74-.97s-.75-.35-1.39-.35c-.59,0-1.07.13-1.43.38-.36.25-.54.55-.54.91,0,.22.06.41.19.57.12.16.29.3.51.41.22.11.44.2.66.27.22.06.59.16,1.1.28.64.14,1.22.3,1.74.48.52.17.96.39,1.32.64.36.25.65.56.85.95s.31.85.31,1.4Z"/>
    <path class="st0" d="M145.79,48.76c-.29,0-.54-.09-.75-.26-.21-.17-.31-.42-.31-.74,0-.29.11-.53.32-.71s.46-.28.75-.28.51.09.73.25c.21.17.32.42.32.74s-.1.56-.31.74c-.21.18-.45.27-.73.27ZM146.83,50.86v5.9c0,.41-.1.72-.3.93s-.46.31-.77.31-.56-.11-.75-.32-.29-.52-.29-.92v-5.84c0-.4.1-.71.29-.91.19-.2.44-.31.75-.31s.56.1.77.31c.2.2.3.49.3.85Z"/>
    <path class="st0" d="M155.81,55.34c0,.56-.14,1.05-.43,1.45-.28.4-.7.71-1.26.91s-1.23.31-2.02.31-1.41-.11-1.95-.34-.94-.5-1.2-.84-.39-.67-.39-1.01c0-.22.08-.42.25-.58.17-.16.37-.24.63-.24.22,0,.39.05.51.16s.23.25.34.44c.22.36.48.64.78.82s.71.27,1.23.27c.42,0,.77-.09,1.04-.27.27-.18.41-.39.41-.62,0-.36-.14-.62-.42-.79-.28-.16-.74-.32-1.39-.47-.73-.17-1.32-.36-1.77-.55-.46-.19-.82-.45-1.09-.76s-.41-.7-.41-1.16c0-.41.13-.8.38-1.16.25-.36.63-.65,1.12-.87s1.09-.33,1.78-.33c.55,0,1.04.06,1.47.16.44.11.8.26,1.09.44.29.18.51.39.66.61s.23.44.23.66c0,.23-.08.43-.24.58s-.39.22-.69.22c-.22,0-.4-.06-.55-.18s-.33-.3-.52-.54c-.16-.2-.35-.36-.56-.48s-.51-.18-.88-.18-.7.08-.95.24-.38.35-.38.59c0,.21.09.39.28.53.19.14.44.25.75.34s.75.2,1.3.33c.65.15,1.19.34,1.6.55.41.21.73.47.94.76s.32.62.32,1Z"/>
    <path class="st0" d="M157.71,49.88h.23v-1.23c0-.33,0-.59.03-.77s.07-.35.15-.48c.08-.14.2-.25.36-.34.15-.09.33-.13.52-.13.27,0,.51.1.73.29.14.13.24.29.27.47s.06.45.06.8v1.39h.77c.3,0,.53.07.68.21.16.14.24.31.24.53,0,.27-.11.47-.34.58-.22.11-.54.16-.96.16h-.39v3.75c0,.32.01.56.03.74s.09.31.19.42c.1.11.26.16.49.16.12,0,.29-.02.5-.06.21-.04.38-.06.49-.06.17,0,.32.07.46.2.14.13.2.3.2.49,0,.33-.19.58-.56.76s-.9.26-1.6.26c-.66,0-1.16-.11-1.5-.32s-.56-.51-.67-.89c-.11-.38-.16-.88-.16-1.52v-3.92h-.28c-.3,0-.54-.07-.7-.21-.16-.14-.24-.32-.24-.53s.08-.39.25-.53c.17-.14.41-.21.73-.21Z"/>
    <path class="st0" d="M169.08,54.36h-4.13c0,.46.1.87.29,1.23.19.35.44.62.75.8s.66.27,1.03.27c.25,0,.48-.03.69-.09.21-.06.41-.15.61-.27.2-.12.38-.25.54-.39.17-.14.38-.33.64-.57.11-.09.26-.13.46-.13.22,0,.39.06.53.17.13.11.2.28.2.49,0,.18-.07.4-.22.65s-.37.48-.68.71c-.3.23-.68.42-1.14.56s-.98.22-1.57.22c-1.36,0-2.41-.37-3.16-1.12s-1.13-1.76-1.13-3.04c0-.6.09-1.16.28-1.68s.46-.96.81-1.33c.36-.37.79-.65,1.31-.85.52-.2,1.1-.3,1.73-.3.82,0,1.53.17,2.12.5s1.03.77,1.33,1.31c.29.53.44,1.08.44,1.63,0,.51-.15.85-.46,1-.3.15-.73.23-1.28.23ZM164.96,53.2h3.83c-.05-.7-.25-1.22-.58-1.57-.34-.35-.78-.52-1.33-.52s-.96.18-1.29.53-.54.87-.61,1.56Z"/>
    <path class="st0" d="M179.62,54.01v2.71c0,.43-.1.75-.3.96s-.47.32-.8.32-.58-.11-.78-.32-.3-.54-.3-.96v-3.25c0-.51-.02-.91-.05-1.2s-.13-.52-.29-.7c-.16-.18-.41-.27-.76-.27-.69,0-1.14.23-1.36.69-.22.46-.33,1.12-.33,1.97v2.76c0,.42-.1.74-.3.96s-.46.33-.78.33-.58-.11-.78-.33-.31-.54-.31-.96v-5.84c0-.38.09-.68.27-.88.18-.2.42-.3.72-.3s.53.09.72.28.29.45.29.77v.19c.37-.42.76-.74,1.17-.93.42-.2.88-.3,1.39-.3s.99.1,1.37.31c.38.2.7.51.94.93.36-.42.74-.73,1.14-.93s.86-.3,1.35-.3c.58,0,1.07.11,1.49.33.42.22.73.53.94.94.18.37.27.95.27,1.74v3.99c0,.43-.1.75-.3.96s-.47.32-.8.32-.58-.11-.78-.33-.31-.54-.31-.96v-3.43c0-.44-.02-.79-.06-1.05-.04-.26-.14-.49-.31-.67s-.43-.27-.77-.27c-.28,0-.54.08-.79.24-.25.16-.44.37-.58.64-.15.34-.23.95-.23,1.82Z"/>
    <path class="st0" d="M187.67,48.76c-.29,0-.54-.09-.75-.26-.21-.17-.31-.42-.31-.74,0-.29.11-.53.32-.71s.46-.28.75-.28.51.09.73.25c.21.17.32.42.32.74s-.1.56-.31.74c-.21.18-.45.27-.73.27ZM188.72,50.86v5.9c0,.41-.1.72-.3.93s-.46.31-.77.31-.56-.11-.75-.32-.29-.52-.29-.92v-5.84c0-.4.1-.71.29-.91.19-.2.44-.31.75-.31s.56.1.77.31c.2.2.3.49.3.85Z"/>
    <path class="st0" d="M197.31,48.02v3.84l4.51-4.55c.22-.22.4-.38.55-.49s.35-.16.61-.16c.33,0,.6.09.8.28s.31.42.31.68c0,.32-.17.65-.52.96l-2.79,2.56,3.22,4.46c.23.31.4.58.51.81s.17.46.17.68c0,.24-.1.46-.3.64s-.47.27-.81.27c-.32,0-.58-.07-.78-.2s-.37-.31-.51-.53c-.14-.22-.26-.42-.37-.6l-2.71-4.04-1.88,1.74v2.27c0,.46-.11.8-.32,1.02s-.49.33-.83.33c-.2,0-.38-.05-.56-.15s-.32-.23-.42-.4c-.07-.14-.12-.3-.13-.49-.02-.18-.02-.45-.02-.8v-8.15c0-.45.1-.79.31-1.01s.48-.34.83-.34.63.11.84.33c.21.22.32.56.32,1.01Z"/>
    <path class="st0" d="M213.87,53.86c0,.61-.1,1.17-.29,1.68-.2.51-.48.96-.85,1.32-.37.37-.81.65-1.33.85s-1.09.3-1.74.3-1.21-.1-1.72-.3-.95-.48-1.33-.86c-.37-.37-.66-.81-.85-1.32-.19-.51-.29-1.07-.29-1.68s.1-1.18.29-1.7c.2-.51.48-.95.84-1.32.37-.36.81-.64,1.33-.84.52-.2,1.09-.3,1.72-.3s1.22.1,1.74.3c.52.2.97.48,1.34.85.37.37.65.81.85,1.32s.29,1.07.29,1.68ZM211.75,53.86c0-.83-.19-1.48-.57-1.94s-.89-.7-1.53-.7c-.41,0-.78.1-1.09.31-.31.21-.56.51-.73.92s-.26.88-.26,1.41.08,1,.25,1.4c.17.4.41.7.72.92.31.21.68.32,1.1.32.64,0,1.15-.23,1.53-.7.38-.47.57-1.11.57-1.93Z"/>
    <path class="st0" d="M217.45,50.83v.25c.37-.47.78-.82,1.22-1.04.44-.22.95-.33,1.52-.33s1.05.12,1.49.35c.44.23.77.57.98.99.14.25.23.52.27.81.04.29.06.66.06,1.11v3.8c0,.41-.1.72-.29.93s-.44.31-.75.31-.57-.11-.77-.32-.29-.52-.29-.92v-3.4c0-.67-.1-1.19-.29-1.54-.19-.36-.58-.53-1.16-.53-.38,0-.72.11-1.03.33s-.54.52-.68.89c-.1.3-.15.87-.15,1.71v2.56c0,.41-.1.72-.3.93s-.46.31-.77.31-.55-.11-.75-.32-.29-.52-.29-.92v-5.9c0-.39.09-.68.26-.87.17-.19.41-.29.72-.29.19,0,.35.04.5.13.15.09.27.21.36.38.09.17.14.38.14.62Z"/>
    <path class="st0" d="M225.21,49.88h.23v-1.23c0-.33,0-.59.03-.77s.07-.35.15-.48c.08-.14.2-.25.36-.34.15-.09.33-.13.52-.13.27,0,.51.1.73.29.14.13.24.29.27.47s.06.45.06.8v1.39h.77c.3,0,.53.07.68.21.16.14.24.31.24.53,0,.27-.11.47-.34.58-.22.11-.54.16-.96.16h-.39v3.75c0,.32.01.56.03.74s.09.31.19.42c.1.11.26.16.49.16.12,0,.29-.02.5-.06.21-.04.38-.06.49-.06.17,0,.32.07.46.2.14.13.2.3.2.49,0,.33-.19.58-.56.76s-.9.26-1.6.26c-.66,0-1.16-.11-1.5-.32s-.56-.51-.67-.89c-.11-.38-.16-.88-.16-1.52v-3.92h-.28c-.3,0-.54-.07-.7-.21-.16-.14-.24-.32-.24-.53s.08-.39.25-.53c.17-.14.41-.21.73-.21Z"/>
    <path class="st0" d="M232.79,55.06v1.71c0,.41-.1.72-.3.93s-.46.31-.77.31-.55-.1-.75-.31-.29-.52-.29-.93v-5.68c0-.92.34-1.38,1.03-1.38.35,0,.6.11.76.32.15.21.24.53.26.95.25-.42.51-.74.78-.95.27-.21.62-.32,1.06-.32s.87.11,1.29.32c.42.21.63.5.63.85,0,.25-.09.46-.27.62-.18.16-.37.24-.58.24-.08,0-.26-.05-.56-.14-.3-.09-.56-.14-.78-.14-.31,0-.56.08-.76.24s-.35.39-.46.7c-.11.31-.18.68-.22,1.1s-.06.95-.06,1.56Z"/>
    <path class="st0" d="M244.93,53.86c0,.61-.1,1.17-.29,1.68-.2.51-.48.96-.85,1.32-.37.37-.81.65-1.33.85s-1.09.3-1.74.3-1.21-.1-1.72-.3-.95-.48-1.33-.86c-.37-.37-.66-.81-.85-1.32-.19-.51-.29-1.07-.29-1.68s.1-1.18.29-1.7c.2-.51.48-.95.84-1.32.37-.36.81-.64,1.33-.84.52-.2,1.09-.3,1.72-.3s1.22.1,1.74.3c.52.2.97.48,1.34.85.37.37.65.81.85,1.32s.29,1.07.29,1.68ZM242.81,53.86c0-.83-.19-1.48-.57-1.94s-.89-.7-1.53-.7c-.41,0-.78.1-1.09.31-.31.21-.56.51-.73.92s-.26.88-.26,1.41.08,1,.25,1.4c.17.4.41.7.72.92.31.21.68.32,1.1.32.64,0,1.15-.23,1.53-.7.38-.47.57-1.11.57-1.93Z"/>
    <path class="st0" d="M246.59,56.77v-8.86c0-.41.09-.72.28-.93s.44-.31.76-.31.58.1.77.31c.2.21.29.52.29.93v8.86c0,.41-.1.72-.3.93s-.46.31-.77.31-.56-.11-.75-.32-.29-.52-.29-.92Z"/>
    <path class="st0" d="M259.38,53.55h-2.1v3.1c0,.44-.11.78-.32,1.01s-.49.34-.82.34-.62-.11-.83-.34-.32-.56-.32-1v-8.45c0-.49.12-.84.35-1.05s.6-.31,1.11-.31h2.94c.87,0,1.54.06,2.01.19.46.12.86.33,1.2.62.34.29.59.64.77,1.06s.26.89.26,1.41c0,1.12-.36,1.96-1.07,2.54s-1.77.86-3.18.86ZM258.82,48.52h-1.55v3.35h1.55c.54,0,.99-.05,1.36-.16.36-.11.64-.29.83-.54.19-.25.29-.58.29-.98,0-.48-.15-.88-.44-1.18-.33-.32-1.01-.49-2.03-.49Z"/>
    <path class="st0" d="M270.12,56.86c-.51.38-1,.67-1.48.86s-1.01.29-1.6.29c-.54,0-1.02-.1-1.43-.31s-.73-.49-.95-.84c-.22-.35-.33-.74-.33-1.15,0-.56.18-1.03.55-1.43.37-.39.87-.66,1.51-.79.13-.03.47-.1,1-.2s.99-.2,1.36-.29c.38-.09.79-.19,1.23-.32-.03-.54-.14-.93-.34-1.19-.2-.25-.61-.38-1.23-.38-.54,0-.94.07-1.21.22-.27.14-.5.36-.7.65-.19.29-.33.48-.41.57-.08.09-.25.14-.51.14-.24,0-.44-.07-.61-.22-.17-.15-.26-.34-.26-.56,0-.36.13-.71.39-1.05.26-.34.67-.62,1.23-.84.56-.22,1.25-.33,2.08-.33.93,0,1.66.11,2.19.32.53.21.91.55,1.12,1.01.22.46.33,1.07.33,1.82,0,.48,0,.89,0,1.22,0,.33,0,.71-.01,1.11,0,.38.07.78.2,1.2.13.42.2.68.2.8,0,.21-.1.4-.31.57s-.43.26-.69.26c-.22,0-.43-.1-.64-.3s-.44-.48-.67-.86ZM269.99,53.9c-.31.11-.76.23-1.35.35-.59.12-1,.21-1.23.27-.23.06-.44.17-.65.34-.21.17-.31.4-.31.7s.12.57.36.79.56.33.95.33c.42,0,.8-.09,1.16-.27.35-.18.61-.4.78-.68.19-.31.29-.82.29-1.53v-.29Z"/>
    <path class="st0" d="M276.12,50.83v.25c.37-.47.78-.82,1.22-1.04.44-.22.95-.33,1.52-.33s1.05.12,1.49.35c.44.23.77.57.98.99.14.25.23.52.27.81.04.29.06.66.06,1.11v3.8c0,.41-.1.72-.29.93s-.44.31-.75.31-.57-.11-.77-.32-.29-.52-.29-.92v-3.4c0-.67-.1-1.19-.29-1.54-.19-.36-.58-.53-1.16-.53-.38,0-.72.11-1.03.33s-.54.52-.68.89c-.1.3-.15.87-.15,1.71v2.56c0,.41-.1.72-.3.93s-.46.31-.77.31-.55-.11-.75-.32-.29-.52-.29-.92v-5.9c0-.39.09-.68.26-.87.17-.19.41-.29.72-.29.19,0,.35.04.5.13.15.09.27.21.36.38.09.17.14.38.14.62Z"/>
    <path class="st0" d="M289.09,56.86c-.51.38-1,.67-1.48.86s-1.01.29-1.6.29c-.54,0-1.02-.1-1.43-.31s-.73-.49-.95-.84c-.22-.35-.33-.74-.33-1.15,0-.56.18-1.03.55-1.43.37-.39.87-.66,1.51-.79.13-.03.47-.1,1-.2s.99-.2,1.36-.29c.38-.09.79-.19,1.23-.32-.03-.54-.14-.93-.34-1.19-.2-.25-.61-.38-1.23-.38-.54,0-.94.07-1.21.22-.27.14-.5.36-.7.65-.19.29-.33.48-.41.57-.08.09-.25.14-.51.14-.24,0-.44-.07-.61-.22-.17-.15-.26-.34-.26-.56,0-.36.13-.71.39-1.05.26-.34.67-.62,1.23-.84.56-.22,1.25-.33,2.08-.33.93,0,1.66.11,2.19.32.53.21.91.55,1.12,1.01.22.46.33,1.07.33,1.82,0,.48,0,.89,0,1.22,0,.33,0,.71-.01,1.11,0,.38.07.78.2,1.2.13.42.2.68.2.8,0,.21-.1.4-.31.57s-.43.26-.69.26c-.22,0-.43-.1-.64-.3s-.44-.48-.67-.86ZM288.95,53.9c-.31.11-.76.23-1.35.35-.59.12-1,.21-1.23.27-.23.06-.44.17-.65.34-.21.17-.31.4-.31.7s.12.57.36.79.56.33.95.33c.42,0,.8-.09,1.16-.27.35-.18.61-.4.78-.68.19-.31.29-.82.29-1.53v-.29Z"/>
    <path class="st0" d="M293.17,56.77v-8.86c0-.41.09-.72.28-.93s.44-.31.76-.31.58.1.77.31c.2.21.29.52.29.93v8.86c0,.41-.1.72-.3.93s-.46.31-.77.31-.56-.11-.75-.32-.29-.52-.29-.92Z"/>
    <path class="st0" d="M298.52,48.76c-.29,0-.54-.09-.75-.26-.21-.17-.31-.42-.31-.74,0-.29.11-.53.32-.71s.46-.28.75-.28.51.09.73.25c.21.17.32.42.32.74s-.1.56-.31.74c-.21.18-.45.27-.73.27ZM299.57,50.86v5.9c0,.41-.1.72-.3.93s-.46.31-.77.31-.56-.11-.75-.32-.29-.52-.29-.92v-5.84c0-.4.1-.71.29-.91.19-.2.44-.31.75-.31s.56.1.77.31c.2.2.3.49.3.85Z"/>
  </g>
</svg>